<svg width="53" height="12" viewBox="0 0 53 12" fill="none" xmlns="http://www.w3.org/2000/svg">
<path d="M5.01758 7.75293V10.8359H3.66406V7.75293H0.792969V6.41992H3.66406V3.39844H5.01758V6.41992H7.88867V7.75293H5.01758ZM12.209 4.02734C12.209 2.25 13.6377 0.951172 15.5996 0.951172C17.4795 0.951172 18.8809 2.14746 18.8809 3.71289C18.8809 4.86133 18.2656 5.71582 16.8232 7.19238L14.3555 9.67383V9.70801H19.0381V11H12.291V9.96094L15.8525 6.33105C17.0557 5.08008 17.3701 4.56055 17.3701 3.78809C17.3701 2.91309 16.5771 2.21582 15.5518 2.21582C14.4717 2.21582 13.6582 2.99512 13.6582 4.02051V4.04102H12.209V4.02734ZM23.208 11V3.80859H24.6162V5.01855H24.6504C24.9717 4.21875 25.7236 3.68555 26.6943 3.68555C27.6924 3.68555 28.417 4.19824 28.7041 5.09375H28.7383C29.1074 4.21875 29.9551 3.68555 30.9805 3.68555C32.4023 3.68555 33.332 4.62891 33.332 6.05762V11H31.8486V6.41309C31.8486 5.4834 31.3496 4.9502 30.4746 4.9502C29.5996 4.9502 28.9912 5.59961 28.9912 6.50879V11H27.542V6.30371C27.542 5.47656 27.0156 4.9502 26.1816 4.9502C25.3066 4.9502 24.6846 5.63379 24.6846 6.55664V11H23.208ZM37.8506 11.1367C35.793 11.1367 34.4395 9.72168 34.4395 7.4043C34.4395 5.09375 35.7998 3.67871 37.8506 3.67871C39.9014 3.67871 41.2617 5.09375 41.2617 7.4043C41.2617 9.72168 39.9082 11.1367 37.8506 11.1367ZM37.8506 9.91992C39.0127 9.91992 39.7578 9.00391 39.7578 7.4043C39.7578 5.81152 39.0059 4.89551 37.8506 4.89551C36.6953 4.89551 35.9434 5.81152 35.9434 7.4043C35.9434 9.00391 36.6953 9.91992 37.8506 9.91992ZM42.4033 11V3.80859H43.8115V5.03223H43.8457C44.085 4.19141 44.7275 3.69238 45.5752 3.69238C45.7871 3.69238 45.9717 3.72656 46.0811 3.74707V5.12109C45.9648 5.07324 45.7051 5.03906 45.418 5.03906C44.4678 5.03906 43.8799 5.6748 43.8799 6.69336V11H42.4033ZM49.6904 4.86816C48.6582 4.86816 47.9336 5.6543 47.8584 6.74121H51.4541C51.4199 5.64062 50.7227 4.86816 49.6904 4.86816ZM51.4473 8.8877H52.8486C52.6436 10.2002 51.3994 11.1367 49.752 11.1367C47.6396 11.1367 46.3613 9.70801 46.3613 7.43848C46.3613 5.18262 47.6602 3.67871 49.6904 3.67871C51.6865 3.67871 52.9307 5.08691 52.9307 7.26758V7.77344H47.8516V7.8623C47.8516 9.11328 48.6035 9.94043 49.7861 9.94043C50.627 9.94043 51.249 9.5166 51.4473 8.8877Z" fill="#053559"/>
</svg>
